# xmcd
#
# Track frame offsets: 
#        150
#        14649
#        38761
#        54939
#        70856
#        87147
#        101035
#        114684
#        130596
#        145914
#        169751
#        185455
#
# Disc length: 2764 seconds
#
# Revision: 2
# Processed by: cddbd v1.5.2PL0 Copyright (c) Steve Scherf et al.
# Submitted via: ExactAudioCopyFreeDBPlugin 1.0
#
DISCID=9f0aca0c
DTITLE=Kris Kristofferson - 1974 - Spooky Lady's Sideshow
DYEAR=1974
DGENRE=Country
TTITLE0=Same Old Song
TTITLE1=Broken Freedom Song
TTITLE2=Shandy (The Perfect Disguise)
TTITLE3=Star-Spangled Bummer (Whores Die Hard)
TTITLE4=Lights Of Magdala
TTITLE5=I May Smoke Too Much
TTITLE6=One For The Money
TTITLE7=Late Again (Gettin' Over You)
TTITLE8=Stairway To The Bottom
TTITLE9=Rescue Mission
TTITLE10=Smile At Me Again
TTITLE11=Rock And Roll Time
EXTD=
EXTT0=
EXTT1=
EXTT2=
EXTT3=
EXTT4=
EXTT5=
EXTT6=
EXTT7=
EXTT8=
EXTT9=
EXTT10=
EXTT11=
PLAYORDER=
